<?xml version="1.0" encoding="utf-8"?>
<!-- Generator: Adobe Illustrator 25.2.3, SVG Export Plug-In . SVG Version: 6.00 Build 0)  -->
<svg version="1.1" id="Layer_1" xmlns="http://www.w3.org/2000/svg" xmlns:xlink="http://www.w3.org/1999/xlink" x="0px" y="0px"
	 viewBox="0 0 512 512" style="enable-background:new 0 0 512 512;" xml:space="preserve">
<style type="text/css">
	.st0{fill:#0D1117;}
</style>
<path class="st0" d="M178.6,377.8H77.4c-14.5,0-22.2,17.6-11.7,28.2l101.2,101.2c10.4,10.4,28.2,3,28.2-11.7V394.3
	C195.1,385.2,187.7,377.8,178.6,377.8z M401.6,0H110.5C83.1,0,60.9,22.2,60.9,49.5v297.8c0,9.1,7.4,16.5,16.6,16.5
	c15.2-0.1,46.3,0,111.6,0c11,0,20,8.9,20,20c0,65.3,0.1,96.4,0,111.6c0,9.2,7.4,16.6,16.5,16.6h176c27.4,0,49.5-22.2,49.5-49.5V49.5
	C451.1,22.2,428.9,0,401.6,0z M255.3,52c30.7,0,55.6,24.9,55.6,55.6c0,30.6-24.9,55.6-55.6,55.6c-30.6,0-55.6-24.9-55.6-55.6
	C199.8,76.9,224.7,52,255.3,52L255.3,52z M171.7,221.4c0-14.3,8.4-27.3,21.5-33.1c28.8-12.9,28.4-13.1,32.9-13.1h58.1
	c4.6,0,4.5,0.4,32.9,13.1c13,5.8,21.5,18.8,21.5,33.1v22.6c0,9.1-7.4,16.5-16.5,16.5H188.2c-9.1,0-16.5-7.4-16.5-16.5L171.7,221.4z
	 M348.9,434.6h-96c-9.1,0-16.5-7.4-16.5-16.5c0-9.1,7.4-16.5,16.5-16.5h96c9.1,0,16.5,7.4,16.5,16.5
	C365.4,427.2,358,434.6,348.9,434.6z M348.9,339.6H162.1c-9.1,0-16.5-7.4-16.5-16.5c0-9.1,7.4-16.5,16.5-16.5h186.8
	c9.1,0,16.5,7.4,16.5,16.5C365.4,332.2,358,339.6,348.9,339.6z"/>
</svg>
